# xmcd CD database file
#
# Track frame offsets:
#	150
#	20200
#	34435
#	50069
#	57716
#	71999
#	88342
#	107060
#	123708
#	134890
#	145969
#	163928
#	171989
#	189749
#	207441
#	214847
#
# Disc length: 2992 seconds
#
# Revision: 0
# Processed by: cddbd v1.5.2PL0 Copyright (c) Steve Scherf et al.
# Submitted via: Feurio! 1.68 - http://www.feurio.com
#
DISCID=1f0bae10
DTITLE=Tom Waits - Alice (edit)
DYEAR=1900
DGENRE=Blues
TTITLE0=Alice
TTITLE1=Everything You Can Think
TTITLE2=Flowers Grave
TTITLE3=On One Knows I'm Gone
TTITLE4=Kommienezuspadt
TTITLE5=Poor Edward
TTITLE6=Table Top Joe
TTITLE7=Lost In The Harbour
TTITLE8=We're All Mad Here
TTITLE9=Watch Her Disappear
TTITLE10=Reeperbahn
TTITLE11=I'm Still Here
TTITLE12=Fish and Bird
TTITLE13=Barcarolle
TTITLE14=Fawn
TTITLE15=Papa Was A Brand New Bag (live)
EXTD=
EXTT0=
EXTT1=
EXTT2=
EXTT3=
EXTT4=
EXTT5=
EXTT6=
EXTT7=
EXTT8=
EXTT9=
EXTT10=
EXTT11=
EXTT12=
EXTT13=
EXTT14=
EXTT15=
PLAYORDER=
